<svg xmlns="http://www.w3.org/2000/svg" width="151" height="45" fill="none" viewBox="0 0 151 45"><path fill="#fff" d="M149.505 39.198a4.25 4.25 0 0 1-2.632 3.934 4.3 4.3 0 0 1-1.63.322H5.757a4.264 4.264 0 0 1-4.268-4.256V5.252A4.267 4.267 0 0 1 5.757.989h139.485a4.264 4.264 0 0 1 4.262 4.263z"/><path fill="#A6A6A6" d="M145.243 44.445H5.757A5.26 5.26 0 0 1 .5 39.197V5.253A5.26 5.26 0 0 1 5.757 0h139.485a5.263 5.263 0 0 1 5.257 5.253v33.945c.002 2.894-2.36 5.246-5.256 5.246"/><path fill="#000" d="M149.505 39.198a4.25 4.25 0 0 1-2.632 3.934 4.3 4.3 0 0 1-1.63.322H5.757a4.264 4.264 0 0 1-4.268-4.256V5.252A4.267 4.267 0 0 1 5.757.989h139.485a4.264 4.264 0 0 1 4.262 4.263z"/><path fill="#fff" d="M33.994 21.989c-.033-3.582 2.933-5.325 3.07-5.406-1.68-2.449-4.284-2.783-5.2-2.81-2.186-.23-4.307 1.308-5.421 1.308-1.136 0-2.852-1.286-4.7-1.248-2.38.037-4.605 1.414-5.826 3.552-2.519 4.36-.64 10.768 1.773 14.292 1.208 1.727 2.618 3.653 4.465 3.585 1.806-.073 2.481-1.15 4.661-1.15 2.16 0 2.794 1.15 4.677 1.107 1.94-.03 3.16-1.734 4.325-3.475 1.395-1.978 1.956-3.927 1.978-4.027-.045-.016-3.765-1.436-3.802-5.728m-3.558-10.534c.972-1.215 1.637-2.868 1.452-4.545-1.406.062-3.165.973-4.178 2.16-.896 1.048-1.696 2.764-1.49 4.377 1.58.118 3.202-.796 4.216-1.992"/><path fill="url(#a)" d="M145.243 0H70.53l29.264 44.444h45.449a5.263 5.263 0 0 0 5.257-5.25V5.252A5.262 5.262 0 0 0 145.243 0"/><path fill="#fff" d="M60.16 35.015h-2.525l-1.383-4.345h-4.807l-1.317 4.345H47.67l4.764-14.791h2.941zm-4.324-6.168-1.251-3.862q-.2-.591-.746-2.786h-.045q-.22.944-.702 2.786l-1.23 3.862zm16.55.704q0 2.72-1.478 4.3-1.325 1.405-3.288 1.405-2.12 0-3.047-1.513v5.596h-2.37V27.855q0-1.709-.088-3.506H64.2l.132 1.691h.045q1.185-1.91 3.6-1.91 1.887 0 3.149 1.491 1.26 1.495 1.26 3.93m-2.414.087q.001-1.557-.703-2.569-.768-1.052-2.063-1.052-.878.001-1.59.58a2.7 2.7 0 0 0-.933 1.527 3 3 0 0 0-.11.721v1.78q0 1.161.713 1.965.714.8 1.855.8 1.338-.001 2.084-1.03.747-1.032.747-2.722m14.685-.087q0 2.72-1.479 4.3-1.325 1.405-3.29 1.405-2.12 0-3.046-1.513v5.596h-2.37V27.855q0-1.709-.088-3.506h2.085l.132 1.691h.045q1.183-1.91 3.6-1.91 1.886 0 3.15 1.491 1.258 1.495 1.26 3.93m-2.416.087q0-1.557-.704-2.569-.767-1.052-2.061-1.052-.877.001-1.593.58a2.7 2.7 0 0 0-.932 1.527 3.2 3.2 0 0 0-.11.721v1.78q0 1.161.712 1.965.713.799 1.856.8 1.341-.001 2.085-1.03.747-1.032.747-2.722m16.134 1.228q-.001 1.888-1.315 3.073-1.445 1.294-4.03 1.295-2.387 0-3.83-.922l.547-1.975a6.6 6.6 0 0 0 3.424.923q1.341-.001 2.085-.604.747-.604.748-1.611-.002-.902-.616-1.515-.613-.615-2.041-1.14-3.886-1.45-3.887-4.237 0-1.82 1.372-2.984t3.633-1.164q2.02 0 3.359.702l-.595 1.932q-1.256-.68-2.843-.68c-.836 0-1.492.206-1.96.614a1.76 1.76 0 0 0-.596 1.34q0 .878.682 1.449.592.526 2.15 1.14 1.91.77 2.81 1.799.904 1.031.903 2.565m7.857-4.738h-2.613v5.178q0 1.975 1.383 1.974.636 0 1.053-.11l.065 1.8q-.7.261-1.843.261-1.404 0-2.195-.857-.79-.855-.791-2.875v-5.376h-1.556v-1.778h1.556v-1.953l2.328-.702v2.655h2.613zm11.764 3.466q0 2.46-1.405 4.038-1.47 1.625-3.907 1.624-2.35-.001-3.743-1.556-1.395-1.56-1.394-3.928 0-2.479 1.437-4.059 1.44-1.58 3.876-1.58 2.347 0 3.774 1.558 1.363 1.51 1.362 3.903m-2.457.055q0-1.465-.635-2.517-.746-1.27-2.13-1.27c-.949 0-1.678.424-2.173 1.27q-.637 1.052-.636 2.561 0 1.468.636 2.518.766 1.27 2.153 1.27 1.359-.001 2.13-1.291c.436-.718.655-1.562.655-2.541m10.164-3.216a4 4 0 0 0-.747-.065q-1.251-.002-1.932.945-.591.833-.591 2.106v5.596h-2.371v-7.307q.004-1.68-.069-3.357h2.065l.087 2.04h.065q.376-1.053 1.185-1.69a2.87 2.87 0 0 1 1.713-.572q.329.001.593.044zm10.6 2.744q.009.541-.086 1.075h-7.111q.041 1.581 1.032 2.417.898.743 2.326.744 1.58 0 2.877-.503l.371 1.644q-1.513.659-3.576.658-2.482 0-3.898-1.458-1.415-1.46-1.415-3.916 0-2.412 1.318-4.015 1.382-1.71 3.73-1.71 2.306 0 3.492 1.71.94 1.357.94 3.354m-2.26-.614q.024-1.055-.46-1.822c-.41-.66-1.042-.989-1.888-.989-.774 0-1.406.321-1.886.966q-.593.77-.702 1.843zM50.762 14.993c-.66 0-1.23-.032-1.705-.087v-7.15a13 13 0 0 1 2.007-.152c2.718 0 3.97 1.338 3.97 3.517 0 2.514-1.479 3.872-4.272 3.872m.398-6.472q-.55-.002-.939.076v5.436c.14.022.41.032.787.032 1.781 0 2.795-1.013 2.795-2.912 0-1.692-.917-2.632-2.643-2.632m7.775 6.527c-1.532 0-2.525-1.144-2.525-2.697 0-1.618 1.014-2.772 2.612-2.772 1.51 0 2.524 1.09 2.524 2.687 0 1.638-1.046 2.782-2.611 2.782m.044-4.617c-.841 0-1.38.787-1.38 1.887 0 1.08.55 1.866 1.37 1.866.819 0 1.369-.841 1.369-1.888 0-1.067-.54-1.865-1.359-1.865m11.303-.744-1.64 5.242h-1.068l-.68-2.277a17 17 0 0 1-.42-1.692h-.023c-.085.571-.248 1.143-.42 1.692l-.723 2.277h-1.08l-1.542-5.242h1.197l.594 2.492q.21.89.355 1.683h.023c.085-.441.225-.993.431-1.672l.745-2.502h.95l.712 2.449c.172.593.312 1.176.421 1.726h.031c.076-.54.195-1.111.356-1.726l.637-2.449zm6.037 5.242h-1.165v-3.01c0-.927-.356-1.392-1.058-1.392-.69 0-1.165.594-1.165 1.284v3.118h-1.165v-3.744c0-.463-.01-.96-.043-1.499h1.025l.054.81h.033c.313-.56.949-.917 1.662-.917 1.1 0 1.823.842 1.823 2.211zm3.213 0h-1.167V7.282h1.167zm4.247.119c-1.53 0-2.524-1.144-2.524-2.697 0-1.618 1.014-2.772 2.61-2.772 1.51 0 2.525 1.09 2.525 2.687 0 1.638-1.046 2.782-2.61 2.782m.044-4.617c-.842 0-1.381.787-1.381 1.887 0 1.08.551 1.866 1.369 1.866.82 0 1.37-.841 1.37-1.888 0-1.067-.538-1.865-1.358-1.865m7.16 4.498-.084-.604h-.031c-.356.486-.875.723-1.533.723-.94 0-1.607-.658-1.607-1.543 0-1.294 1.122-1.963 3.064-1.963v-.097c0-.69-.366-1.035-1.088-1.035-.517 0-.97.13-1.37.389l-.237-.766c.485-.302 1.09-.454 1.8-.454 1.37 0 2.061.723 2.061 2.169v1.93c0 .53.024.94.076 1.252zm-.16-2.611c-1.294 0-1.943.313-1.943 1.057 0 .55.335.82.8.82.592 0 1.143-.453 1.143-1.068zm6.793 2.61-.055-.84h-.032c-.334.635-.897.96-1.683.96-1.264 0-2.2-1.112-2.2-2.675 0-1.64.97-2.795 2.296-2.795.701 0 1.198.237 1.478.713h.023V7.282h1.167v6.234c0 .507.012.982.043 1.413zm-.172-3.084c0-.733-.486-1.359-1.228-1.359-.864 0-1.392.766-1.392 1.844 0 1.057.548 1.78 1.369 1.78.732 0 1.25-.636 1.25-1.39zm8.56 3.204c-1.531 0-2.524-1.144-2.524-2.697 0-1.618 1.014-2.772 2.61-2.772 1.511 0 2.525 1.09 2.525 2.687.001 1.638-1.045 2.782-2.611 2.782m.043-4.617c-.84 0-1.38.787-1.38 1.887 0 1.08.551 1.866 1.369 1.866.82 0 1.37-.841 1.37-1.888.002-1.067-.537-1.865-1.359-1.865m8.834 4.498h-1.167v-3.01q-.002-1.391-1.057-1.392c-.69 0-1.164.594-1.164 1.284v3.118h-1.166v-3.744c0-.463-.011-.96-.043-1.499h1.025l.054.81h.032c.313-.56.95-.918 1.661-.918 1.101 0 1.825.842 1.825 2.211zm7.838-4.368h-1.281v2.545q-.001.972.678.971c.205 0 .378-.022.517-.054l.032.885q-.34.13-.904.13c-.918 0-1.467-.507-1.467-1.834V10.56h-.765v-.874h.765v-.96l1.144-.346v1.305h1.281zm6.168 4.368h-1.164V11.94c0-.938-.354-1.412-1.057-1.412-.604 0-1.166.41-1.166 1.24v3.16h-1.164V7.282h1.164v3.149h.023c.367-.571.898-.853 1.577-.853 1.109 0 1.787.863 1.787 2.233zm6.319-2.34h-3.496c.022.992.679 1.552 1.652 1.552.517 0 .993-.087 1.413-.248l.181.809c-.496.216-1.079.323-1.759.323-1.64 0-2.61-1.035-2.61-2.641s.994-2.816 2.479-2.816c1.34 0 2.18.993 2.18 2.492q.012.266-.04.528m-1.068-.831c0-.81-.408-1.38-1.153-1.38-.669 0-1.199.582-1.274 1.38z"/><defs><linearGradient id="a" x1="110.514" x2="110.514" y1="44.562" y2="-115.726" gradientUnits="userSpaceOnUse"><stop stop-color="#1A1A1A" stop-opacity=".1"/><stop offset=".123" stop-color="#212121" stop-opacity=".151"/><stop offset=".308" stop-color="#353535" stop-opacity=".227"/><stop offset=".532" stop-color="#575757" stop-opacity=".318"/><stop offset=".783" stop-color="#858585" stop-opacity=".421"/><stop offset="1" stop-color="#B3B3B3" stop-opacity=".51"/></linearGradient></defs></svg>